Genre: Action | Fantasy | Thriller
Language:English
IMDb:http://www.imdb.com/title/tt1071875/
Source:KORSUB HDRip H264 AAC-KTH Thanks!
Encoder:Tony

Format : AVI
Format/Info : Audio Video Interleave
File size : 923 MiB
Duration : 1h 35mn
Overall bit rate : 1 351 Kbps

Video
ID : 0
Format : MPEG-4 Visual
Format profile : Advanced Simple@L5
Format settings, BVOP : 1
Format settings, QPel : No
Format settings, GMC : No warppoints
Format settings, Matrix : Default (H.263)
Codec ID : XVID
Codec ID/Hint : XviD
Duration : 1h 35mn
Bit rate : 1 150 Kbps
Width : 640 pixels
Height : 216 pixels
Display aspect ratio : 2.963
Frame rate : 24.000 fps
Color space : YUV
Chroma subsampling : 4:2:0
Bit depth : 8 bits
Scan type : Progressive
Compression mode : Lossy
Bits/(Pixel*Frame) : 0.347
Stream size : 786 MiB (85%)
Writing library : XviD 1.2.1 (UTC 2008-12-04)

Audio
ID : 1
Format : AC-3
Format/Info : Audio Coding 3
Mode extension : CM (complete main)
Codec ID : 2000
Duration : 1h 35mn
Bit rate mode : Constant
Bit rate : 192 Kbps
Channel(s) : 2 channels
Channel positions : Front: L R
Sampling rate : 48.0 KHz
Bit depth : 16 bits
Compression mode : Lossy
Stream size : 131 MiB (14%)
Alignment : Aligned on interleaves
Interleave, duration : 42 ms (1.00 video frame)
Interleave, preload duration : 512 ms


Plot:
As Johnny Blaze hides out in Eastern Europe, he is called upon to stop the devil, who is trying to take human form.

TRAILER:











Greets:

CRYS,IMAGINE,LKRG,FXG,3Li,FLAWL3SS,TA,iLLUSiON,EMBER,HOPE,GooN,BBnRG,NOGRP,ETRG,BHRG,iLLUMiNATi,MiSTERE.ViSiON,DTRG SAFCuk009,LU,TheFalcon007,MYSTiC,PrisM,Noir,WBZ,LAP,Rx,Kingdom,SAFCuk009+Fabreezy,HDLiTE,TWiZTED,ExtraTorrentRG.ELEKTRI4KA,MAGNAT,CM8
And to all the other p2p grps past and present




Make sure its a real Feel-Free release @

Thanks to all who promotes release Feel-Free !!!